<?xml version="1.0" encoding="UTF-8" standalone="no"?>
<!-- Created with Inkscape (http://www.inkscape.org/) -->

<svg
   xmlns:dc="http://purl.org/dc/elements/1.1/"
   xmlns:cc="http://creativecommons.org/ns#"
   xmlns:rdf="http://www.w3.org/1999/02/22-rdf-syntax-ns#"
   xmlns:svg="http://www.w3.org/2000/svg"
   xmlns="http://www.w3.org/2000/svg"
   xmlns:xlink="http://www.w3.org/1999/xlink"
   xmlns:sodipodi="http://sodipodi.sourceforge.net/DTD/sodipodi-0.dtd"
   xmlns:inkscape="http://www.inkscape.org/namespaces/inkscape"
   width="407"
   height="238"
   id="svg2"
   version="1.1"
   inkscape:version="0.48.5 r10040"
   sodipodi:docname="pacmanR.svg">
  <defs
     id="defs4">
    <linearGradient
       id="gradientFill-1"
       x1="0"
       x2="1"
       y1="0"
       y2="1"
       gradientUnits="objectBoundingBox"
       spreadMethod="pad">
      <stop
         offset="0"
         stop-color="rgb(203,206,208)"
         stop-opacity="1"
         id="stop7" />
      <stop
         offset="1"
         stop-color="rgb(132,131,139)"
         stop-opacity="1"
         id="stop9" />
    </linearGradient>
    <linearGradient
       gradientTransform="matrix(0.05248493,0,0,0.05225106,207.43997,923.78498)"
       id="gradientFill-2"
       x1="301.02603"
       x2="703.06751"
       y1="151.40061"
       y2="553.44209"
       gradientUnits="userSpaceOnUse"
       spreadMethod="pad">
      <stop
         offset="0"
         stop-color="rgb(39,109,195)"
         stop-opacity="1"
         id="stop12" />
      <stop
         offset="1"
         stop-color="rgb(22,92,170)"
         stop-opacity="1"
         id="stop14" />
    </linearGradient>
    <linearGradient
       gradientTransform="matrix(0.0647848,0,0,0.04233081,207.43997,923.78498)"
       y2="593.78698"
       x2="590.86259"
       y1="3.6658269"
       x1="0.74144253"
       spreadMethod="pad"
       gradientUnits="userSpaceOnUse"
       id="linearGradient3017"
       xlink:href="#gradientFill-1"
       inkscape:collect="always" />
    <linearGradient
       gradientTransform="matrix(0.05248493,0,0,0.05225106,257.43997,923.78498)"
       id="gradientFill-2-1"
       x1="301.02603"
       x2="703.0675"
       y1="151.4006"
       y2="553.44208"
       gradientUnits="userSpaceOnUse"
       spreadMethod="pad">
      <stop
         offset="0"
         stop-color="rgb(39,109,195)"
         stop-opacity="1"
         id="stop12-7" />
      <stop
         offset="1"
         stop-color="rgb(22,92,170)"
         stop-opacity="1"
         id="stop14-4" />
    </linearGradient>
    <linearGradient
       gradientTransform="matrix(0.0647848,0,0,0.04233081,216.70714,924.18362)"
       y2="593.78699"
       x2="590.86261"
       y1="3.6658268"
       x1="0.7414425"
       spreadMethod="pad"
       gradientUnits="userSpaceOnUse"
       id="linearGradient3017-0"
       xlink:href="#gradientFill-1-9"
       inkscape:collect="always" />
    <linearGradient
       id="gradientFill-1-9"
       x1="0"
       x2="1"
       y1="0"
       y2="1"
       gradientUnits="objectBoundingBox"
       spreadMethod="pad">
      <stop
         offset="0"
         stop-color="rgb(203,206,208)"
         stop-opacity="1"
         id="stop7-4" />
      <stop
         offset="1"
         stop-color="rgb(132,131,139)"
         stop-opacity="1"
         id="stop9-8" />
    </linearGradient>
    <linearGradient
       y2="593.78699"
       x2="590.86261"
       y1="3.6658268"
       x1="0.7414425"
       spreadMethod="pad"
       gradientTransform="matrix(0.0647848,0,0,0.04233081,257.43997,923.78498)"
       gradientUnits="userSpaceOnUse"
       id="linearGradient3047"
       xlink:href="#gradientFill-1-9"
       inkscape:collect="always" />
    <linearGradient
       gradientTransform="matrix(0.05248493,0,0,0.05225106,308.12595,923.67995)"
       id="gradientFill-2-4"
       x1="301.02603"
       x2="703.0675"
       y1="151.4006"
       y2="553.44208"
       gradientUnits="userSpaceOnUse"
       spreadMethod="pad">
      <stop
         offset="0"
         stop-color="rgb(39,109,195)"
         stop-opacity="1"
         id="stop12-5" />
      <stop
         offset="1"
         stop-color="rgb(22,92,170)"
         stop-opacity="1"
         id="stop14-5" />
    </linearGradient>
    <linearGradient
       gradientTransform="matrix(0.0647848,0,0,0.04233081,216.70714,924.18362)"
       y2="593.78699"
       x2="590.86261"
       y1="3.6658268"
       x1="0.7414425"
       spreadMethod="pad"
       gradientUnits="userSpaceOnUse"
       id="linearGradient3017-1"
       xlink:href="#gradientFill-1-7"
       inkscape:collect="always" />
    <linearGradient
       id="gradientFill-1-7"
       x1="0"
       x2="1"
       y1="0"
       y2="1"
       gradientUnits="objectBoundingBox"
       spreadMethod="pad">
      <stop
         offset="0"
         stop-color="rgb(203,206,208)"
         stop-opacity="1"
         id="stop7-1" />
      <stop
         offset="1"
         stop-color="rgb(132,131,139)"
         stop-opacity="1"
         id="stop9-1" />
    </linearGradient>
    <linearGradient
       y2="593.78699"
       x2="590.86261"
       y1="3.6658268"
       x1="0.7414425"
       spreadMethod="pad"
       gradientTransform="matrix(0.0647848,0,0,0.04233081,308.12595,923.67995)"
       gradientUnits="userSpaceOnUse"
       id="linearGradient3047-5"
       xlink:href="#gradientFill-1-7"
       inkscape:collect="always" />
    <linearGradient
       y2="593.78699"
       x2="590.86261"
       y1="3.6658268"
       x1="0.7414425"
       spreadMethod="pad"
       gradientTransform="matrix(0.0647848,0,0,0.04233081,317.21732,924.18502)"
       gradientUnits="userSpaceOnUse"
       id="linearGradient3047-5-6"
       xlink:href="#gradientFill-1-7-1"
       inkscape:collect="always" />
    <linearGradient
       id="gradientFill-1-7-1"
       x1="0"
       x2="1"
       y1="0"
       y2="1"
       gradientUnits="objectBoundingBox"
       spreadMethod="pad">
      <stop
         offset="0"
         stop-color="rgb(203,206,208)"
         stop-opacity="1"
         id="stop7-1-4" />
      <stop
         offset="1"
         stop-color="rgb(132,131,139)"
         stop-opacity="1"
         id="stop9-1-2" />
    </linearGradient>
    <linearGradient
       gradientTransform="matrix(0.05248493,0,0,0.05225106,357.43997,923.78498)"
       id="gradientFill-2-4-3"
       x1="301.02603"
       x2="703.0675"
       y1="151.4006"
       y2="553.44208"
       gradientUnits="userSpaceOnUse"
       spreadMethod="pad">
      <stop
         offset="0"
         stop-color="rgb(39,109,195)"
         stop-opacity="1"
         id="stop12-5-2" />
      <stop
         offset="1"
         stop-color="rgb(22,92,170)"
         stop-opacity="1"
         id="stop14-5-2" />
    </linearGradient>
    <linearGradient
       y2="593.78699"
       x2="590.86261"
       y1="3.6658268"
       x1="0.7414425"
       spreadMethod="pad"
       gradientTransform="matrix(0.0647848,0,0,0.04233081,357.43997,923.78498)"
       gradientUnits="userSpaceOnUse"
       id="linearGradient3118"
       xlink:href="#gradientFill-1-7-1"
       inkscape:collect="always" />
  </defs>
  <sodipodi:namedview
     id="base"
     pagecolor="#ffffff"
     bordercolor="#666666"
     borderopacity="1.0"
     inkscape:pageopacity="0.0"
     inkscape:pageshadow="2"
     inkscape:zoom="1.979899"
     inkscape:cx="237.39681"
     inkscape:cy="86.534139"
     inkscape:document-units="px"
     inkscape:current-layer="layer1"
     showgrid="false"
     inkscape:window-width="1920"
     inkscape:window-height="999"
     inkscape:window-x="-9"
     inkscape:window-y="-9"
     inkscape:window-maximized="1">
    <inkscape:grid
       type="xygrid"
       id="grid3145" />
  </sodipodi:namedview>
  <metadata
     id="metadata7">
    <rdf:RDF>
      <cc:Work
         rdf:about="">
        <dc:format>image/svg+xml</dc:format>
        <dc:type
           rdf:resource="http://purl.org/dc/dcmitype/StillImage" />
        <dc:title />
      </cc:Work>
    </rdf:RDF>
  </metadata>
  <g
     inkscape:label="Layer 1"
     inkscape:groupmode="layer"
     id="layer1"
     transform="translate(0,-814.36218)">
    <g
       id="g2989"
       transform="matrix(0.75157366,0,0,0.72603998,143.27902,265.43772)">
      <text
         id="text2991"
         style="font-size:13.80000019px;font-style:normal;font-weight:normal;text-align:start;text-anchor:start;fill:#000000;font-family:Calibri"
         y="13.050693"
         x="0"
         xml:space="preserve"> </text>
      <path
         id="path2993"
         d="m -186.23249,920.69758 c 0,-88.76722 71.94375,-160.73354 160.706247,-160.73354 88.7625,0 160.725003,71.96632 160.725003,160.73354 0,88.76722 -71.962503,160.71482 -160.725003,160.71482 -88.762497,0 -160.706247,-71.9476 -160.706247,-160.71482"
         style="fill:#ffff00;fill-opacity:1;fill-rule:evenodd;stroke:none"
         inkscape:connector-curvature="0" />
      <path
         id="path2995"
         d="m -186.23249,920.69758 c 0,-88.76722 71.94375,-160.73354 160.706247,-160.73354 88.7625,0 160.725003,71.96632 160.725003,160.73354 0,88.76722 -71.962503,160.71482 -160.725003,160.71482 -88.762497,0 -160.706247,-71.9476 -160.706247,-160.71482"
         style="fill:none;stroke:#000000;stroke-width:2.4937501px;stroke-linecap:butt;stroke-linejoin:round;stroke-opacity:1;stroke-dasharray:none"
         inkscape:connector-curvature="0" />
      <path
         id="path2997"
         d="M -26.426243,921.09135 117.25501,848.6"
         style="fill:none;stroke:#000000;stroke-width:2.8125px;stroke-linecap:butt;stroke-linejoin:round;stroke-opacity:1;stroke-dasharray:none"
         inkscape:connector-curvature="0" />
      <path
         id="path2999"
         d="M -26.369993,921.27886 117.19876,994.59525"
         style="fill:none;stroke:#000000;stroke-width:2.8125px;stroke-linecap:butt;stroke-linejoin:round;stroke-opacity:1;stroke-dasharray:none"
         inkscape:connector-curvature="0" />
      <path
         id="path3001"
         d="M 168.94876,1020.1716 -26.051243,921.2601 168.94876,822.3486 z"
         style="fill:#ffffff;fill-opacity:1;fill-rule:evenodd;stroke:none"
         inkscape:connector-curvature="0" />
      <path
         id="path3003"
         d="M 168.94876,1020.1716 -26.051243,921.2601 168.94876,822.3486 z"
         style="fill:none;stroke:#ffffff;stroke-width:2.4937501px;stroke-linecap:butt;stroke-linejoin:round;stroke-opacity:1;stroke-dasharray:none"
         inkscape:connector-curvature="0" />
      <path
         id="path3005"
         d="M -26.369993,920.84758 117.33001,848.52499"
         style="fill:none;stroke:#000000;stroke-width:2.8125px;stroke-linecap:butt;stroke-linejoin:round;stroke-opacity:1;stroke-dasharray:none"
         inkscape:connector-curvature="0" />
      <path
         id="path3007"
         d="M -26.369993,921.03509 117.19876,994.539"
         style="fill:none;stroke:#000000;stroke-width:2.8125px;stroke-linecap:butt;stroke-linejoin:round;stroke-opacity:1;stroke-dasharray:none"
         inkscape:connector-curvature="0" />
      <path
         style="fill:none;stroke:#000000;stroke-width:1.35373592px;stroke-linecap:butt;stroke-linejoin:miter;stroke-opacity:1"
         d="m 117.07208,995.05823 0.89098,0.39968"
         id="path3038"
         inkscape:connector-curvature="0" />
      <path
         style="fill:none;stroke:#000000;stroke-width:1.47259831px;stroke-linecap:butt;stroke-linejoin:miter;stroke-opacity:1"
         d="m 117.10077,994.47308 1.18996,0.49395"
         id="path3040-1"
         inkscape:connector-curvature="0" />
      <path
         style="fill:none;stroke:#000000;stroke-width:1.47259831px;stroke-linecap:butt;stroke-linejoin:miter;stroke-opacity:1"
         d="m 117.10078,994.6268 1.18996,0.49395"
         id="path3040-7"
         inkscape:connector-curvature="0" />
      <path
         style="fill:none;stroke:#000000;stroke-width:2.38483047px;stroke-linecap:butt;stroke-linejoin:miter;stroke-opacity:1"
         d="m 117.37218,846.94362 0.42106,0.72345 0.77748,1.33595"
         id="path3040-7-4"
         inkscape:connector-curvature="0"
         inkscape:transform-center-y="-0.94464181"
         inkscape:transform-center-x="-0.56543558"
         sodipodi:nodetypes="ccc" />
      <path
         style="fill:none;stroke:#000000;stroke-width:1.47259831px;stroke-linecap:butt;stroke-linejoin:miter;stroke-opacity:1"
         d="m 117.07476,994.79977 1.1232,0.63991"
         id="path3040-7-4-0"
         inkscape:connector-curvature="0"
         inkscape:transform-center-y="-0.98874193"
         inkscape:transform-center-x="-0.11687926" />
      <path
         style="fill:none;stroke:#000000;stroke-width:1.84522021px;stroke-linecap:butt;stroke-linejoin:miter;stroke-opacity:1"
         d="m 117.16736,993.96169 1.38666,0.81707"
         id="path3040-7-4-9"
         inkscape:connector-curvature="0"
         inkscape:transform-center-y="-1.2890019"
         inkscape:transform-center-x="-0.088324732" />
      <path
         style="fill:none;stroke:#000000;stroke-width:2.38483047px;stroke-linecap:butt;stroke-linejoin:miter;stroke-opacity:1"
         d="m 117.53652,847.21759 0.42106,0.72345 0.77748,1.33595"
         id="path3040-7-4-4"
         inkscape:connector-curvature="0"
         inkscape:transform-center-y="-1.3010882"
         inkscape:transform-center-x="-0.75233388"
         sodipodi:nodetypes="ccc" />
      <path
         style="fill:none;stroke:#000000;stroke-width:2.53564906px;stroke-linecap:butt;stroke-linejoin:miter;stroke-opacity:1"
         d="m 115.40767,849.65083 1.37981,-0.69359 2.54802,-1.28071"
         id="path3040-7-4-4-8"
         inkscape:connector-curvature="0"
         inkscape:transform-center-y="0.08217802"
         inkscape:transform-center-x="2.6228219"
         sodipodi:nodetypes="ccc" />
      <path
         style="fill:#e3dedb;stroke:#ffffff;stroke-width:1.04302871px;stroke-linecap:butt;stroke-linejoin:miter;stroke-opacity:1"
         d="m 118.36327,845.15052 1.98116,3.76955"
         id="path3148"
         inkscape:connector-curvature="0" />
      <path
         style="fill:none;stroke:#000000;stroke-width:3.42025161px;stroke-linecap:butt;stroke-linejoin:miter;stroke-opacity:1"
         d="m -27.509073,919.8188 0.54169,1.18561"
         id="path3928"
         inkscape:connector-curvature="0" />
      <path
         style="fill:none;stroke:#000000;stroke-width:6.35938072px;stroke-linecap:butt;stroke-linejoin:miter;stroke-opacity:1"
         d="m -27.108493,919.86983 -1.00273,2.12851"
         id="path3928-8"
         inkscape:connector-curvature="0" />
      <path
         style="fill:#ffff00;fill-opacity:1;stroke:#ffff00;stroke-width:6.35938072px;stroke-linecap:butt;stroke-linejoin:miter;stroke-opacity:1"
         d="m -28.513853,920.33323 -1.00567,-2.12703"
         id="path3928-8-2"
         inkscape:connector-curvature="0" />
    </g>
    <path
       style="fill:url(#linearGradient3017);fill-rule:evenodd"
       inkscape:connector-curvature="0"
       d="m 226.60345,948.92048 c -10.55714,0 -19.11544,-5.592 -19.11544,-12.4901 0,-6.8982 8.5583,-12.4902 19.11544,-12.4902 10.55718,0 19.11544,5.592 19.11544,12.4902 0,6.8981 -8.55826,12.4901 -19.11544,12.4901 z m 2.92595,-20.0971 c -8.02437,0 -14.5294,3.823 -14.5294,8.5388 0,4.7159 6.50503,8.5388 14.5294,8.5388 8.02431,0 13.94614,-2.6136 13.94614,-8.5388 0,-5.9233 -5.92183,-8.5388 -13.94614,-8.5388 z"
       id="path16" />
    <path
       style="fill:url(#gradientFill-2);fill-rule:evenodd"
       inkscape:connector-curvature="0"
       d="m 236.59981,943.28568 c 0,0 1.15696,0.3406 1.82912,0.6724 0.23322,0.1151 0.63674,0.3449 0.92781,0.6466 0.28513,0.2954 0.42414,0.5948 0.42414,0.5948 l 4.55954,7.5003 -7.36948,0 -3.44617,-6.3138 c 0,0 -0.70567,-1.1829 -1.13988,-1.5259 -0.36222,-0.2861 -0.51666,-0.3879 -0.8748,-0.3879 -0.24929,0 -1.75097,0 -1.75097,0 l 0.001,8.223 -6.5212,0 0,-21.0053 13.09542,0 c 0,0 5.96451,0.105 5.96451,5.6413 0,5.5364 -5.69942,5.9485 -5.69942,5.9485 z m -2.83646,-7.0335 -3.94787,0 -0.002,3.5716 3.94984,0 c 0,0 1.82911,-0.01 1.82911,-1.8169 0,-1.8477 -1.82911,-1.7511 -1.82911,-1.7511 z"
       id="path18" />
    <path
       style="fill:url(#linearGradient3047);fill-rule:evenodd"
       inkscape:connector-curvature="0"
       d="m 276.60345,948.92046 c -10.55714,0 -19.11544,-5.59198 -19.11544,-12.49008 0,-6.8982 8.5583,-12.4902 19.11544,-12.4902 10.55718,0 19.11544,5.592 19.11544,12.4902 0,6.8981 -8.55826,12.49008 -19.11544,12.49008 z m 2.92595,-20.09708 c -8.02437,0 -14.5294,3.823 -14.5294,8.5388 0,4.7159 6.50503,8.5388 14.5294,8.5388 8.02431,0 13.94614,-2.6136 13.94614,-8.5388 0,-5.9233 -5.92183,-8.5388 -13.94614,-8.5388 z"
       id="path16-8" />
    <path
       style="fill:url(#gradientFill-2-1);fill-rule:evenodd"
       inkscape:connector-curvature="0"
       d="m 286.59981,943.28568 c 0,0 1.15696,0.3406 1.82912,0.6724 0.23322,0.1151 0.63674,0.3449 0.92781,0.6466 0.28513,0.2954 0.42414,0.5948 0.42414,0.5948 l 4.55954,7.50028 -7.36948,0 -3.44617,-6.31378 c 0,0 -0.70567,-1.1829 -1.13988,-1.5259 -0.36222,-0.2861 -0.51666,-0.3879 -0.8748,-0.3879 -0.24929,0 -1.75097,0 -1.75097,0 l 10e-4,8.22298 -6.5212,0 0,-21.00528 13.09542,0 c 0,0 5.96451,0.105 5.96451,5.6413 0,5.5364 -5.69942,5.9485 -5.69942,5.9485 z m -2.83646,-7.0335 -3.94787,0 -0.002,3.5716 3.94984,0 c 0,0 1.82911,-0.01 1.82911,-1.8169 0,-1.8477 -1.82911,-1.7511 -1.82911,-1.7511 z"
       id="path18-2" />
    <path
       style="fill:url(#linearGradient3047-5);fill-rule:evenodd"
       inkscape:connector-curvature="0"
       d="m 327.28943,948.81545 c -10.55714,0 -19.11544,-5.592 -19.11544,-12.4901 0,-6.8982 8.5583,-12.4902 19.11544,-12.4902 10.55718,0 19.11544,5.592 19.11544,12.4902 0,6.8981 -8.55826,12.4901 -19.11544,12.4901 z m 2.92595,-20.0971 c -8.02437,0 -14.5294,3.823 -14.5294,8.5388 0,4.7159 6.50503,8.5388 14.5294,8.5388 8.02431,0 13.94614,-2.6136 13.94614,-8.5388 0,-5.9233 -5.92183,-8.5388 -13.94614,-8.5388 z"
       id="path16-2" />
    <path
       style="fill:url(#gradientFill-2-4);fill-rule:evenodd"
       inkscape:connector-curvature="0"
       d="m 337.28579,943.18065 c 0,0 1.15696,0.3406 1.82912,0.6724 0.23322,0.1151 0.63674,0.3449 0.92781,0.6466 0.28513,0.2954 0.42414,0.5948 0.42414,0.5948 l 4.55954,7.5003 -7.36948,0 -3.44617,-6.3138 c 0,0 -0.70567,-1.1829 -1.13988,-1.5259 -0.36222,-0.2861 -0.51666,-0.3879 -0.8748,-0.3879 -0.24929,0 -1.75097,0 -1.75097,0 l 10e-4,8.223 -6.5212,0 0,-21.0053 13.09542,0 c 0,0 5.96451,0.105 5.96451,5.6413 0,5.5364 -5.69942,5.9485 -5.69942,5.9485 z m -2.83646,-7.0335 -3.94787,0 -0.002,3.5716 3.94984,0 c 0,0 1.82911,-0.01 1.82911,-1.8169 0,-1.8477 -1.82911,-1.7511 -1.82911,-1.7511 z"
       id="path18-7" />
    <path
       style="fill:url(#linearGradient3118);fill-rule:evenodd"
       inkscape:connector-curvature="0"
       d="m 376.60345,948.92048 c -10.55714,0 -19.11544,-5.592 -19.11544,-12.4901 0,-6.8982 8.5583,-12.4902 19.11544,-12.4902 10.55718,0 19.11544,5.592 19.11544,12.4902 0,6.8981 -8.55826,12.4901 -19.11544,12.4901 z m 2.92595,-20.0971 c -8.02437,0 -14.5294,3.823 -14.5294,8.5388 0,4.7159 6.50503,8.5388 14.5294,8.5388 8.02431,0 13.94614,-2.6136 13.94614,-8.5388 0,-5.9233 -5.92183,-8.5388 -13.94614,-8.5388 z"
       id="path16-2-1" />
    <path
       style="fill:url(#gradientFill-2-4-3);fill-rule:evenodd"
       inkscape:connector-curvature="0"
       d="m 386.59981,943.28568 c 0,0 1.15696,0.3406 1.82912,0.6724 0.23322,0.1151 0.63674,0.3449 0.92781,0.6466 0.28513,0.2954 0.42414,0.5948 0.42414,0.5948 l 4.55954,7.5003 -7.36948,0 -3.44617,-6.3138 c 0,0 -0.70567,-1.1829 -1.13988,-1.5259 -0.36222,-0.2861 -0.51666,-0.3879 -0.8748,-0.3879 -0.24929,0 -1.75097,0 -1.75097,0 l 10e-4,8.223 -6.5212,0 0,-21.0053 13.09542,0 c 0,0 5.96451,0.105 5.96451,5.6413 0,5.5364 -5.69942,5.9485 -5.69942,5.9485 z m -2.83646,-7.0335 -3.94787,0 -0.002,3.5716 3.94984,0 c 0,0 1.82911,-0.01 1.82911,-1.8169 0,-1.8477 -1.82911,-1.7511 -1.82911,-1.7511 z"
       id="path18-7-6" />
  </g>
</svg>
